<svg width="172" height="68" viewBox="0 0 172 68" fill="none" xmlns="http://www.w3.org/2000/svg">
<path d="M112.115 0.981201L54.2422 67.6899H171.929L112.115 0.981201ZM126.389 24.1884L129.981 28.1696L100.171 62.7377H93.0828L126.389 24.1884ZM86.577 62.8348H78.9059L119.106 16.2261L122.99 20.5957L86.577 62.8348ZM133.186 31.8595L160.957 62.7377H106.483L133.186 31.8595ZM112.115 8.36091L115.804 12.5363L72.4002 62.8348H64.8262L112.115 8.36091Z" fill="#FFDE11"/>
<path d="M59.4886 0.689941L0.0625 67.6899H46.1857L105.612 0.689941H59.4886ZM80.6567 5.54501L31.3292 62.7378H24.5321L73.8596 5.54501H80.6567ZM61.6248 5.54501H67.3538L18.0263 62.8349H10.9379L61.6248 5.54501ZM43.9524 62.8349H37.7379L87.0654 5.64211H94.6393L43.9524 62.8349Z" fill="#FFDE11"/>
</svg>
