<svg width="97" height="96" viewBox="0 0 97 96" fill="none" xmlns="http://www.w3.org/2000/svg">
<path d="M87.3995 87.7999H52.7711C52.5527 87.8001 52.3365 87.7571 52.1347 87.6736C51.933 87.5901 51.7497 87.4676 51.5953 87.3131C51.441 87.1587 51.3186 86.9753 51.2352 86.7734C51.1518 86.5716 51.1091 86.3553 51.1094 86.137L51.1203 68.3714C51.1203 67.9161 51.3082 67.4808 51.6374 67.1674C51.9684 66.8546 52.4183 66.7066 52.8663 66.7127C73.8383 67.7912 89.0612 75.961 89.0612 86.1376C89.0614 86.3559 89.0185 86.572 88.9351 86.7738C88.8516 86.9755 88.7292 87.1588 88.5749 87.3132C88.4206 87.4675 88.2373 87.59 88.0356 87.6735C87.834 87.757 87.6178 87.8 87.3995 87.7999ZM54.4334 84.4764H85.5322C83.7711 77.3597 70.8659 71.342 54.4438 70.141L54.4334 84.4764Z" fill="#FFDE11"/>
<path d="M44.2276 87.7999H9.59923C9.15856 87.7998 8.73599 87.6246 8.42439 87.313C8.11279 87.0014 7.93766 86.5789 7.9375 86.1382C7.9375 75.9617 23.1604 67.7919 44.1324 66.7133C44.5889 66.7036 45.0327 66.854 45.3613 67.168C45.5244 67.3234 45.6542 67.5102 45.7431 67.7171C45.832 67.924 45.878 68.1468 45.8784 68.372L45.8894 86.1376C45.889 86.5783 45.7139 87.0008 45.4023 87.3125C45.0908 87.6241 44.6683 87.7994 44.2276 87.7999ZM11.4671 84.4765H42.5659L42.555 70.1411C26.1335 71.342 13.2282 77.3597 11.4671 84.4765Z" fill="#FFDE11"/>
<path d="M95.3383 95.3999H1.66173C1.44351 95.3999 1.22742 95.3569 1.02581 95.2734C0.824203 95.1899 0.641016 95.0675 0.48671 94.9132C0.332404 94.7589 0.210002 94.5757 0.126492 94.3741C0.0429823 94.1725 0 93.9564 0 93.7382V2.64183C0 2.20111 0.175075 1.77845 0.48671 1.46681C0.798345 1.15518 1.22101 0.980103 1.66173 0.980103H95.3383C95.7789 0.980263 96.2015 1.15539 96.5131 1.46699C96.8247 1.77859 96.9998 2.20116 97 2.64183V93.7376C97 94.1783 96.8249 94.6011 96.5133 94.9128C96.2017 95.2245 95.779 95.3997 95.3383 95.3999ZM3.32346 92.0758H93.6759V4.30417H3.32346V92.0758ZM87.5243 87.7999H52.7722C52.3315 87.7999 51.9089 87.6249 51.5972 87.3132C51.2856 87.0016 51.1105 86.5789 51.1105 86.1382V10.243C51.1105 9.80228 51.2856 9.37961 51.5972 9.06797C51.9089 8.75634 52.3315 8.58126 52.7722 8.58126H87.5243C87.965 8.58143 88.3876 8.75655 88.6992 9.06815C89.0108 9.37975 89.1859 9.80233 89.186 10.243V86.1388C89.1859 86.5794 89.0107 87.002 88.6991 87.3135C88.3875 87.625 87.9649 87.7999 87.5243 87.7999ZM54.4346 84.4765H85.8626V11.9047H54.4346V84.4765ZM44.2271 87.7999H9.47751C9.03684 87.7998 8.61426 87.6247 8.30266 87.3131C7.99106 87.0015 7.81593 86.5789 7.81577 86.1382V10.243C7.81577 9.80228 7.99085 9.37961 8.30248 9.06797C8.61412 8.75634 9.03679 8.58126 9.47751 8.58126H44.2271C44.6679 8.58126 45.0905 8.75634 45.4022 9.06797C45.7138 9.37961 45.8889 9.80228 45.8889 10.243V86.1388C45.8889 86.357 45.8459 86.5731 45.7624 86.7747C45.6789 86.9762 45.5564 87.1594 45.4021 87.3136C45.2478 87.4679 45.0646 87.5902 44.863 87.6737C44.6614 87.7571 44.4453 87.8 44.2271 87.7999ZM11.1392 84.4765H42.5654V11.9047H11.1392V84.4765Z" fill="#FFDE11"/>
<path d="M48.5047 49.8524H35.9195C35.4788 49.8524 35.0562 49.6773 34.7445 49.3657C34.4329 49.054 34.2578 48.6314 34.2578 48.1907C34.2578 47.7499 34.4329 47.3273 34.7445 47.0156C35.0562 46.704 35.4788 46.5289 35.9195 46.5289H48.5047C48.9376 46.5406 49.3489 46.7208 49.651 47.0312C49.9531 47.3415 50.1221 47.7576 50.1221 48.1907C50.1221 48.6238 49.9531 49.0398 49.651 49.3501C49.3489 49.6605 48.9376 49.8407 48.5047 49.8524Z" fill="#FFDE11"/>
</svg>
